<?xml version="1.0" encoding="utf-8" ?>
<svg xmlns="http://www.w3.org/2000/svg" xmlns:xlink="http://www.w3.org/1999/xlink" width="512" height="512">
	<path fill="white" transform="scale(0.5 0.5)" d="M-0 -0L1024 0L1024 1024L-0 1024L0 -0Z"/>
	<path fill="#6817C5" transform="scale(0.5 0.5)" d="M216.047 648.25L218 647.986C219.662 648.613 220.424 649.657 221.535 651C221.951 652.867 221.846 653.509 221.002 655.25C220.067 657.18 219.775 657.809 217.75 658.46L217.016 658.48C214.301 658.426 213.538 657.603 211.737 655.763C211.524 654.437 211.306 653.279 211.806 651.989C212.621 649.89 214.079 649.111 216.047 648.25Z"/>
	<path fill="#6817C5" transform="scale(0.5 0.5)" d="M230.7 575.25C232.341 575.683 233.344 576.568 234.492 577.75C234.415 580.231 234.484 583.306 232.935 585.384C232.167 586.413 228.758 586.44 227.394 586.628L225.75 586.18C224.634 583.725 224.314 581.11 223.892 578.472C226.125 577.259 228.28 576.061 230.7 575.25Z"/>
	<path fill="#6817C5" transform="scale(0.5 0.5)" d="M867.625 243.75C868.452 243.704 868.584 243.653 869.384 243.767C871.735 244.101 874.162 246.91 875.454 248.75L875.105 250.5C874.3 253.368 872.782 255.026 870.25 256.499C867.334 255.742 864.486 254.11 861.796 252.784L862.253 251.635C863.454 248.804 864.725 244.907 867.625 243.75Z"/>
	<path fill="#6817C5" transform="scale(0.5 0.5)" d="M364.983 724.811C368.409 727.626 373.219 730.049 375.863 733.587C376.455 738.085 374.337 742.682 372.514 746.708C369.939 747.43 367.276 747.567 364.622 747.809C363.04 747.978 361.569 747.782 360 747.599C356.92 745.552 354.348 739.852 353.002 736.388C355.936 731.347 360.164 727.945 364.983 724.811Z"/>
	<path fill="#6817C5" transform="scale(0.5 0.5)" d="M204.521 534.651L212.75 534.785C216.28 537.017 219.7 540.167 222.089 543.596C220.96 546.98 219.92 552.45 217.869 555.25C216.492 557.13 215.765 557.481 213.625 557.965L203.187 557.909L195.896 547.338C198.38 542.577 201.052 538.744 204.521 534.651Z"/>
	<path fill="#6817C5" transform="scale(0.5 0.5)" d="M257.095 601.599L261.75 601.485C265.337 604.901 268.373 608.148 270.908 612.424C269.985 616.29 267.707 620.887 264.9 623.773C263.424 625.291 262.196 626.05 260.124 626.109L249.842 625.071L247.61 619.75C246.992 618.133 244.834 611.648 245.658 610.431C247.718 607.387 253.67 602.396 257.095 601.599Z"/>
	<path fill="#6817C5" transform="scale(0.5 0.5)" d="M866.384 517.574C869.36 517.399 871.475 517.527 874.234 518.723C878.303 520.486 883.351 524.342 884.98 528.632C886.167 531.758 886.731 535.979 885.201 539.092C883.459 542.633 880.849 544.103 877.296 545.426C874.503 545.526 871.737 544.759 869.19 543.651C864.679 541.689 860.615 537.911 858.956 533.25C857.907 530.301 856.905 525.339 858.463 522.428C860.117 519.337 863.231 518.337 866.384 517.574Z"/>
	<path fill="#6817C5" transform="scale(0.5 0.5)" d="M885.639 372.31L886.146 372.479C894.584 375.311 901.593 377.492 905.496 386.25C905.785 386.899 906.475 388.45 906.464 389.163C906.442 390.634 905.5 392.98 905.076 394.395L901.193 406.365L893.38 407.165L887.216 407.849C881.19 404.106 876.577 397.195 872.891 391.2C871.77 389.375 872.111 387.982 872.625 386.013L885.639 372.31Z"/>
	<path fill="#6817C5" transform="scale(0.5 0.5)" d="M841.447 442.222C845.597 442.357 849.555 442.601 853.642 443.358L866.045 469.203C863.921 471.914 861.706 474.392 859.085 476.637C855.628 479.597 851.851 482.457 847.908 484.738C847.165 485.168 845.537 486.323 844.75 486.475C844.094 486.602 843.417 486.374 842.75 486.323C838.253 484.486 834.428 481.779 830.399 479.115L817.693 470.649C818.028 465.365 819.369 460.843 820.622 455.738C821.727 451.232 822.562 447.012 824.789 442.894C829.916 441.861 836.162 442.32 841.447 442.222Z"/>
	<path fill="#6817C5" transform="scale(0.5 0.5)" d="M144.926 405.75L146.75 405.714C149.491 410.954 153.834 413.606 158.427 417.097L172.159 427.732C176.305 431.078 180.219 434.727 183.975 438.502L177.041 457.5C175.637 461.098 174.256 465.143 172.263 468.459C170.917 470.699 154.545 474.931 150.835 475.759C150.297 475.688 149.205 475.695 148.75 475.483C147.651 474.972 146.127 473.319 145.07 472.519L135.056 464.993L112.176 449.115L126.132 416.299C128.319 414.593 131.092 413.411 133.5 412.025C137.271 409.855 140.82 407.256 144.926 405.75Z"/>
	<path fill="#6817C5" transform="scale(0.5 0.5)" d="M816.343 139.75C816.932 139.671 817.432 139.83 818.01 139.947C824.126 145.783 829.442 152.281 834.778 158.82C839.426 164.516 844.085 170.034 848.044 176.251C847.373 180.903 847.574 185.366 847.788 190.037C841.787 195.267 834.312 199.268 827.673 203.681C823.535 206.431 818.25 210.841 813.636 212.642C812.255 213.181 811.531 212.554 810.249 212.023L777.164 194.076C776.94 190.648 777.636 186.819 777.977 183.381L782.456 153C782.575 152.315 782.652 151.643 782.946 151C783.142 150.573 783.925 149.676 784.25 149.418C785.743 148.237 790.518 147.601 792.5 147.018L816.343 139.75Z"/>
	<path fill="#6817C5" transform="scale(0.5 0.5)" d="M758.256 630.75C759.185 630.577 760.292 630.292 761.214 630.594C766.006 632.162 770.917 635.702 775.39 638.152C782.644 642.126 789.978 645.598 797.048 649.955L792.83 693.672L761.624 709.699C760.809 709.994 760.096 710.163 759.25 710.331C753.66 707.648 748.411 704.515 743 701.503C737.915 698.673 732.052 696.021 727.807 691.976L725.208 663.289C724.9 659.801 723.549 653.132 724.75 649.927C726.171 646.136 753.21 633.139 758.256 630.75Z"/>
	<path fill="#6817C5" transform="scale(0.5 0.5)" d="M476.8 853.733L531.652 853.798L653.75 859.462L674.1 861.628C677.573 862.167 681.431 862.621 684.416 864.575L684.403 865.25C681.44 867.281 677.243 867.986 673.75 868.687C666.599 870.121 659.432 870.965 652.19 871.743C615.753 875.658 578.859 877.273 542.226 877.608L474.853 877.666C437.855 876.977 400.962 875.778 364.231 871.09C354.463 869.843 342.245 869.278 333.574 864.407C340.329 861.724 347.612 861.009 354.776 860.226L384.75 857.794L476.8 853.733Z"/>
	<path fill="#6817C5" transform="scale(0.5 0.5)" d="M382.808 405.375C370.668 403.232 358.493 399.198 346.472 396.327L223.96 361.022C215.184 358.035 206.243 355.855 197.585 352.514C205.05 346.923 211.818 340.134 219.046 334.177L241.968 315.25C245.049 312.718 248.932 310.28 251.506 307.284C255.293 302.874 256.175 295.954 259.101 291.022C260.643 288.424 263.78 286.152 265.938 284.012L279.08 270.646L305.705 244.883C310.1 240.733 315.486 234.652 320.788 231.873C322.858 230.788 325.91 230.373 328.185 229.785L343.408 225.608L363.556 219.174C369.98 216.904 376.204 214.146 382.962 212.966C388.198 212.051 393.672 212.125 398.978 211.987L423.809 211.454L534 210.627L617.111 213.227L632.374 213.939C635.528 213.985 639.465 213.519 642.52 214.155C645.629 214.803 648.881 216.397 651.883 217.535C658.844 220.171 665.958 223.103 673.183 224.926L690.5 228.972C693.381 229.66 696.371 230.05 698.954 231.608C703.441 234.313 707.667 240.019 711.51 243.696L765.544 300.448L797.835 334.836L815.943 354.452L815.299 354.917C811.09 357.232 805.382 358.285 800.797 359.736L776.338 367.662L643.58 405.129C642.273 405.433 637.911 407.034 636.818 406.829C636.613 406.791 636.55 406.51 636.419 406.348C631.703 400.533 627.825 393.815 623.653 387.579L608.702 365.797C607.731 364.319 596.649 347.016 596.092 346.808C595.813 346.703 594.361 347.081 593.952 347.146L584.089 348.833C571.953 351.151 559.796 352.582 547.5 353.689C514.468 356.661 481.98 354.979 449.351 349.096C444.091 348.147 438.519 347.855 433.428 346.239L432.866 346.056C428.057 350.689 424.676 357.137 420.979 362.66L406.888 383.107C401.26 391.143 394.854 398.843 389.523 407.062L382.808 405.375Z"/>
	<path fill="#6817C5" transform="scale(0.5 0.5)" d="M512.741 828.44L508.3 835.225L182.6 378.706C185.048 378.986 187.765 380.439 190.142 381.25L209.702 387.551C226.724 392.32 364.999 429.853 371.84 427.361L372.5 427.08C374.406 426.619 377.285 428.641 378.794 429.657C382.685 432.276 386.125 436.2 389.611 439.354L412.631 460.66C416.668 464.497 422.305 469.228 425.095 473.986C428.162 479.217 429.692 486.783 431.581 492.604L449.436 549.231L497.928 695.297L506.937 723.871C508.491 728.561 510.78 733.321 511.722 738.158C514.076 735.586 515.214 730.349 516.393 726.997L526.397 697.393L576.035 557L585.716 530.698L601.847 485.499C603.438 481.188 604.351 475.5 607.193 471.856C609.796 468.518 613.515 465.551 616.492 462.465L638.75 439.85C642.728 435.965 647.093 430.86 652.087 428.352C655.838 426.468 661.093 426.711 665.247 425.808L710.247 415.351L760.072 402.83L794.25 393.279L802.5 391.572L816.831 387.707C819.883 386.761 822.592 385.41 825.792 384.945C829.698 384.219 833.683 383.508 837.417 382.107L827.221 396.463L789.089 451.25L692.017 588.123L631.952 670.97L540.06 792.767L524.845 812.482C520.901 817.806 517.151 823.487 512.741 828.44Z"/>
</svg>
