<?xml version="1.0"?>
<svg width="512" height="512" xmlns="http://www.w3.org/2000/svg" xmlns:svg="http://www.w3.org/2000/svg">
 <g class="layer">
  <title>Layer 1</title>
  <path d="m216.05,648.25l1.95,-0.26c1.66,0.62 2.42,1.67 3.53,3.01c0.42,1.87 0.32,2.51 -0.53,4.25c-0.93,1.93 -1.22,2.56 -3.25,3.21l-0.73,0.02c-2.72,-0.05 -3.48,-0.88 -5.28,-2.72c-0.22,-1.32 -0.43,-2.48 0.07,-3.77c0.81,-2.1 2.27,-2.88 4.24,-3.74z" fill="#6817C5" id="svg_2" transform="scale(0.5 0.5)"/>
  <path d="m230.7,575.25c1.64,0.43 2.64,1.32 3.79,2.5c-0.08,2.48 -0.01,5.56 -1.55,7.63c-0.77,1.03 -4.18,1.06 -5.55,1.25l-1.64,-0.45c-1.12,-2.45 -1.44,-5.07 -1.86,-7.71c2.24,-1.21 4.39,-2.41 6.81,-3.22z" fill="#6817C5" id="svg_3" transform="scale(0.5 0.5)"/>
  <path d="m867.63,243.75c0.82,-0.05 0.95,-0.1 1.75,0.02c2.36,0.33 4.78,3.14 6.07,4.98l-0.34,1.75c-0.81,2.87 -2.33,4.53 -4.86,6c-2.92,-0.76 -5.76,-2.39 -8.45,-3.72l0.45,-1.15c1.2,-2.83 2.48,-6.72 5.38,-7.88z" fill="#6817C5" id="svg_4" transform="scale(0.5 0.5)"/>
  <path d="m364.98,724.81c3.43,2.82 8.24,5.24 10.88,8.78c0.59,4.5 -1.52,9.09 -3.35,13.12c-2.57,0.72 -5.23,0.86 -7.89,1.1c-1.58,0.17 -3.05,-0.03 -4.62,-0.21c-3.08,-2.05 -5.65,-7.75 -7,-11.21c2.94,-5.04 7.16,-8.44 11.98,-11.58z" fill="#6817C5" id="svg_5" transform="scale(0.5 0.5)"/>
  <path d="m204.52,534.65l8.23,0.13c3.53,2.24 6.95,5.39 9.34,8.82c-1.13,3.38 -2.17,8.85 -4.22,11.65c-1.38,1.88 -2.11,2.23 -4.24,2.72l-10.44,-0.06l-7.29,-10.57c2.48,-4.76 5.15,-8.6 8.62,-12.69z" fill="#6817C5" id="svg_6" transform="scale(0.5 0.5)"/>
  <path d="m257.1,601.6l4.65,-0.11c3.59,3.41 6.62,6.66 9.16,10.93c-0.92,3.87 -3.2,8.47 -6.01,11.35c-1.48,1.52 -2.7,2.28 -4.78,2.34l-10.28,-1.04l-2.23,-5.32c-0.62,-1.62 -2.78,-8.1 -1.95,-9.32c2.06,-3.04 8.01,-8.03 11.44,-8.83z" fill="#6817C5" id="svg_7" transform="scale(0.5 0.5)"/>
  <path d="m866.38,517.57c2.98,-0.17 5.1,-0.04 7.85,1.15c4.07,1.77 9.12,5.62 10.75,9.91c1.19,3.13 1.75,7.35 0.22,10.46c-1.74,3.54 -4.35,5.01 -7.9,6.34c-2.8,0.1 -5.56,-0.67 -8.11,-1.78c-4.51,-1.96 -8.57,-5.74 -10.23,-10.4c-1.05,-2.95 -2.06,-7.91 -0.5,-10.82c1.66,-3.09 4.77,-4.09 7.92,-4.86z" fill="#6817C5" id="svg_8" transform="scale(0.5 0.5)"/>
  <path d="m885.64,372.31l0.51,0.17c8.43,2.83 15.44,5.01 19.35,13.77c0.28,0.65 0.98,2.2 0.96,2.91c-0.02,1.47 -0.96,3.82 -1.38,5.23l-3.89,11.98l-7.81,0.8l-6.16,0.68c-6.03,-3.74 -10.64,-10.66 -14.33,-16.65c-1.12,-1.82 -0.78,-3.22 -0.26,-5.19l13.01,-13.7z" fill="#6817C5" id="svg_9" transform="scale(0.5 0.5)"/>
  <path d="m841.45,442.22c4.15,0.14 8.1,0.38 12.19,1.14l12.4,25.84c-2.12,2.71 -4.33,5.19 -6.95,7.44c-3.46,2.96 -7.24,5.82 -11.18,8.1c-0.75,0.43 -2.37,1.58 -3.16,1.74c-0.66,0.12 -1.33,-0.11 -2,-0.16c-4.5,-1.83 -8.32,-4.54 -12.35,-7.2l-12.71,-8.47c0.34,-5.28 1.68,-9.81 2.93,-14.91c1.11,-4.51 1.94,-8.73 4.17,-12.85c5.13,-1.03 11.37,-0.57 16.66,-0.67z" fill="#6817C5" id="svg_10" transform="scale(0.5 0.5)"/>
  <path d="m144.93,405.75l1.82,-0.04c2.74,5.24 7.08,7.9 11.68,11.39l13.73,10.63c4.15,3.35 8.06,7 11.81,10.77l-6.93,19c-1.4,3.6 -2.78,7.64 -4.78,10.96c-1.34,2.24 -17.72,6.47 -21.42,7.3c-0.54,-0.07 -1.63,-0.07 -2.09,-0.28c-1.1,-0.51 -2.62,-2.16 -3.68,-2.96l-10.01,-7.53l-22.88,-15.87l13.95,-32.82c2.19,-1.71 4.96,-2.89 7.37,-4.28c3.77,-2.16 7.32,-4.76 11.43,-6.27z" fill="#6817C5" id="svg_11" transform="scale(0.5 0.5)"/>
  <path d="m816.34,139.75c0.59,-0.08 1.09,0.08 1.67,0.2c6.12,5.83 11.43,12.33 16.77,18.87c4.65,5.7 9.31,11.21 13.26,17.43c-0.67,4.65 -0.47,9.12 -0.25,13.79c-6,5.23 -13.48,9.23 -20.12,13.64c-4.14,2.75 -9.42,7.16 -14.03,8.96c-1.39,0.54 -2.11,-0.09 -3.39,-0.62l-33.09,-17.94c-0.22,-3.43 0.48,-7.26 0.82,-10.7l4.48,-30.38c0.12,-0.69 0.19,-1.36 0.49,-2c0.19,-0.43 0.97,-1.32 1.3,-1.58c1.49,-1.18 6.27,-1.82 8.25,-2.4l23.84,-7.27z" fill="#6817C5" id="svg_12" transform="scale(0.5 0.5)"/>
  <path d="m758.26,630.75c0.92,-0.17 2.03,-0.46 2.95,-0.16c4.8,1.57 9.71,5.11 14.18,7.56c7.25,3.98 14.59,7.45 21.66,11.81l-4.22,43.71l-31.21,16.03c-0.81,0.29 -1.52,0.46 -2.37,0.63c-5.59,-2.68 -10.84,-5.82 -16.25,-8.83c-5.09,-2.83 -10.95,-5.48 -15.19,-9.52l-2.6,-28.69c-0.31,-3.49 -1.66,-10.16 -0.46,-13.36c1.42,-3.79 28.46,-16.79 33.51,-19.18z" fill="#6817C5" id="svg_13" transform="scale(0.5 0.5)"/>
  <path d="m476.8,853.73l54.85,0.07l122.1,5.66l20.35,2.17c3.47,0.54 7.33,0.99 10.32,2.95l-0.02,0.67c-2.96,2.03 -7.16,2.74 -10.65,3.44c-7.15,1.43 -14.32,2.28 -21.56,3.05c-36.44,3.92 -73.33,5.53 -109.96,5.87l-67.38,0.06c-36.99,-0.69 -73.89,-1.89 -110.62,-6.58c-9.77,-1.25 -21.98,-1.81 -30.66,-6.68c6.76,-2.69 14.04,-3.4 21.21,-4.18l29.97,-2.44l92.05,-4.06z" fill="#6817C5" id="svg_14" transform="scale(0.5 0.5)"/>
  <path d="m382.81,405.38c-12.14,-2.15 -24.32,-6.18 -36.34,-9.05l-122.51,-35.31c-8.78,-2.98 -17.72,-5.16 -26.37,-8.51c7.46,-5.59 14.23,-12.38 21.46,-18.33l22.92,-18.93c3.08,-2.53 6.96,-4.97 9.54,-7.97c3.78,-4.41 4.67,-11.33 7.59,-16.26c1.54,-2.6 4.68,-4.87 6.84,-7.01l13.14,-13.36l26.62,-25.77c4.4,-4.15 9.79,-10.23 15.09,-13.01c2.07,-1.08 5.12,-1.5 7.4,-2.09l15.22,-4.17l20.15,-6.44c6.42,-2.27 12.64,-5.02 19.4,-6.2c5.24,-0.92 10.71,-0.84 16.02,-0.98l24.83,-0.54l110.19,-0.82l83.11,2.6l15.26,0.71c3.16,0.05 7.1,-0.42 10.15,0.22c3.11,0.64 6.36,2.24 9.36,3.37c6.96,2.64 14.08,5.57 21.3,7.4l17.32,4.04c2.88,0.69 5.87,1.08 8.45,2.64c4.49,2.7 8.72,8.41 12.56,12.09l54.03,56.75l32.3,34.39l18.1,19.61l-0.64,0.47c-4.21,2.31 -9.92,3.37 -14.5,4.82l-24.46,7.92l-132.76,37.47c-1.31,0.3 -5.67,1.9 -6.76,1.7c-0.21,-0.04 -0.27,-0.32 -0.4,-0.48c-4.72,-5.82 -8.59,-12.54 -12.77,-18.77l-14.95,-21.78c-0.97,-1.48 -12.05,-18.78 -12.61,-18.99c-0.28,-0.11 -1.73,0.27 -2.14,0.34l-9.86,1.68c-12.14,2.32 -24.29,3.75 -36.59,4.86c-33.03,2.97 -65.52,1.29 -98.15,-4.59c-5.26,-0.95 -10.83,-1.24 -15.92,-2.86l-0.56,-0.18c-4.81,4.63 -8.19,11.08 -11.89,16.6l-14.09,20.45c-5.63,8.03 -12.04,15.73 -17.37,23.95l-6.71,-1.68z" fill="#6817C5" id="svg_15" transform="scale(0.5 0.5)"/>
  <path d="m512.74,828.44l-4.44,6.79l-325.7,-456.52c2.45,0.28 5.16,1.73 7.54,2.54l19.56,6.3c17.02,4.77 155.3,42.3 162.14,39.81l0.66,-0.28c1.91,-0.46 4.79,1.56 6.29,2.58c3.9,2.62 7.34,6.54 10.82,9.69l23.02,21.31c4.04,3.84 9.68,8.57 12.47,13.33c3.06,5.23 4.59,12.79 6.48,18.61l17.86,56.63l48.49,146.07l9.01,28.57c1.55,4.69 3.84,9.45 4.78,14.29c2.36,-2.57 3.49,-7.81 4.67,-11.16l10.01,-29.61l49.63,-140.39l9.69,-26.3l16.13,-45.2c1.59,-4.31 2.5,-10 5.34,-13.64c2.61,-3.34 6.32,-6.31 9.3,-9.4l22.26,-22.61c3.98,-3.89 8.34,-8.99 13.34,-11.5c3.75,-1.88 9,-1.64 13.16,-2.54l45,-10.46l49.82,-12.52l34.18,-9.55l8.25,-1.71l14.33,-3.86c3.05,-0.95 5.76,-2.3 8.96,-2.77c3.91,-0.72 7.89,-1.43 11.63,-2.83l-10.2,14.35l-38.13,54.79l-97.07,136.87l-60.07,82.85l-91.89,121.8l-15.21,19.71c-3.95,5.33 -7.7,11.01 -12.11,15.96z" fill="#6817C5" id="svg_16" transform="scale(0.5 0.5)"/>
 </g>
</svg>